<?xml version="1.0" standalone="no"?>
<!DOCTYPE svg PUBLIC "-//W3C//DTD SVG 20010904//EN"
 "http://www.w3.org/TR/2001/REC-SVG-20010904/DTD/svg10.dtd">
<svg version="1.0" xmlns="http://www.w3.org/2000/svg"
 width="512.000000pt" height="512.000000pt" viewBox="0 0 512.000000 512.000000"
 preserveAspectRatio="xMidYMid meet">
<metadata>
Created by potrace 1.11, written by Peter Selinger 2001-2013
</metadata>
<g transform="translate(0.000000,512.000000) scale(0.100000,-0.100000)"
fill="#000000" stroke="none">
<path d="M2315 5074 c-197 -22 -447 -79 -612 -140 -140 -51 -381 -172 -503
-252 -325 -212 -612 -514 -805 -846 l-29 -49 40 7 c85 14 363 18 494 7 309
-27 639 -104 885 -208 33 -14 74 -32 92 -39 l32 -14 25 55 c31 69 105 143 177
178 224 110 493 -13 553 -252 l12 -46 85 -33 c345 -134 681 -320 751 -416 16
-22 33 -58 39 -81 l10 -40 237 -44 c130 -24 243 -46 251 -49 20 -7 9 -266 -14
-342 -65 -211 -251 -392 -465 -453 -30 -9 -107 -21 -170 -27 -512 -48 -1133
-317 -1690 -733 -165 -124 -399 -353 -455 -446 -50 -83 -58 -150 -25 -213 100
-196 518 -395 1001 -477 295 -51 608 -34 949 50 489 121 959 414 1287 804 178
212 344 496 438 750 114 308 170 700 146 1025 -37 514 -213 971 -530 1380 -97
126 -320 344 -451 442 -272 203 -569 348 -875 428 -222 57 -336 72 -600 75
-132 2 -258 1 -280 -1z"/>
<path d="M2874 3079 c-41 -12 -94 -72 -95 -107 -4 -83 17 -124 79 -153 167
-81 286 164 122 249 -48 24 -58 25 -106 11z"/>
</g>
</svg>
